<svg width="360" height="511" viewBox="0 0 360 511" fill="none" xmlns="http://www.w3.org/2000/svg">
<g filter="url(#filter0_dddd_8_2)">
<path d="M289.454 86.4701L356.954 222.47L356.955 295.47L179.954 475.47L2.45445 295.47L2.45445 222.47L70.4544 86.4702L289.454 86.4701Z" fill="black"/>
<path d="M289.678 86.359C289.636 86.2739 289.549 86.2201 289.454 86.2201L70.4544 86.2202C70.3598 86.2202 70.2732 86.2737 70.2308 86.3584L2.23084 222.358C2.21349 222.393 2.20445 222.431 2.20445 222.47L2.20445 295.47C2.20446 295.536 2.23031 295.599 2.27644 295.646L179.776 475.646C179.823 475.693 179.888 475.72 179.955 475.72C180.022 475.72 180.086 475.693 180.133 475.645L357.133 295.645C357.179 295.599 357.205 295.536 357.205 295.47L357.205 222.47C357.204 222.432 357.196 222.394 357.178 222.359L289.678 86.359Z" stroke="white" stroke-width="0.5" stroke-linejoin="round"/>
</g>
<g filter="url(#filter1_d_8_2)">
<path d="M77.6815 97.5771C77.179 96.919 77.6483 95.9702 78.4763 95.9702L176.454 95.9702C177.007 95.9702 177.454 96.4179 177.454 96.9702L177.454 167.131C177.454 167.799 176.811 168.279 176.17 168.089L118.767 151.063C118.564 151.003 118.385 150.879 118.257 150.711L77.6815 97.5771Z" fill="#C1660A"/>
<path d="M77.8405 97.4557C77.4385 96.9292 77.8139 96.1702 78.4763 96.1702L78.4763 95.9702L78.4763 96.1702L176.454 96.1702C176.896 96.1702 177.254 96.5283 177.254 96.9702L177.254 167.131C177.254 167.665 176.74 168.05 176.227 167.897L118.824 150.871C118.661 150.823 118.518 150.724 118.416 150.59L77.8405 97.4557Z" stroke="white" stroke-width="0.4"/>
</g>
<g filter="url(#filter2_d_8_2)">
<path d="M182.454 96.9702C182.454 96.4179 182.902 95.9702 183.454 95.9702H280.092C280.913 95.9702 281.384 96.9041 280.897 97.5642L241.653 150.701C241.524 150.876 241.342 151.004 241.133 151.065L183.739 168.089C183.098 168.279 182.454 167.799 182.454 167.13V96.9702Z" fill="#8B0000"/>
<path d="M182.654 96.9702C182.654 96.5283 183.013 96.1702 183.454 96.1702H280.092C280.749 96.1702 281.126 96.9173 280.736 97.4454L241.493 150.582C241.389 150.722 241.243 150.824 241.077 150.874L183.682 167.897C183.169 168.05 182.654 167.665 182.654 167.13V96.9702Z" stroke="white" stroke-width="0.4"/>
</g>
<g filter="url(#filter3_d_8_2)">
<path d="M344.316 217.165C344.769 218.079 343.723 219.005 342.871 218.445L246.349 155.058C245.865 154.74 245.752 154.079 246.102 153.617L285.479 101.755C285.928 101.164 286.841 101.251 287.171 101.916L344.316 217.165Z" fill="#CD853F"/>
<path d="M344.136 217.254C344.499 217.985 343.663 218.726 342.981 218.278L246.459 154.891C246.072 154.636 245.981 154.107 246.261 153.738L285.638 101.876C285.997 101.403 286.728 101.473 286.992 102.005L344.136 217.254Z" stroke="white" stroke-width="0.4"/>
</g>
<g filter="url(#filter4_d_8_2)">
<path d="M248.073 164.099C247.356 163.205 248.461 162.003 249.411 162.643L347.513 228.673C347.789 228.859 347.954 229.17 347.954 229.502L347.954 285.628C347.954 286.572 346.766 286.99 346.175 286.254L248.073 164.099Z" fill="#8F9779"/>
<path d="M248.229 163.973C247.655 163.259 248.539 162.297 249.3 162.809L347.401 228.839C347.622 228.987 347.754 229.236 347.754 229.502L347.754 285.628C347.754 286.383 346.804 286.718 346.331 286.129L248.229 163.973Z" stroke="white" stroke-width="0.4"/>
</g>
<g filter="url(#filter5_d_8_2)">
<path d="M72.2434 101.404C72.5718 100.742 73.4802 100.652 73.9314 101.238L114.297 153.617C114.652 154.078 114.541 154.743 114.055 155.063L15.5437 219.936C14.6912 220.497 13.6443 219.571 14.0978 218.656L72.2434 101.404Z" fill="#DAA520"/>
<path d="M72.4226 101.493C72.6853 100.963 73.4121 100.892 73.773 101.36L114.139 153.739C114.423 154.108 114.333 154.64 113.945 154.896L15.4337 219.769C14.7517 220.218 13.9142 219.477 14.277 218.745L72.4226 101.493Z" stroke="white" stroke-width="0.4"/>
</g>
<g filter="url(#filter6_d_8_2)">
<path d="M110.569 162.552C111.521 161.919 112.619 163.12 111.903 164.011L13.2339 286.757C12.6424 287.492 11.4545 287.074 11.4545 286.13V229.006C11.4545 228.671 11.622 228.359 11.9007 228.173L110.569 162.552Z" fill="#8F9779"/>
<path d="M110.68 162.718C111.442 162.212 112.32 163.173 111.747 163.886L13.078 286.631C12.6048 287.22 11.6545 286.885 11.6545 286.13V229.006C11.6545 228.738 11.7885 228.488 12.0114 228.34L110.68 162.718Z" stroke="white" stroke-width="0.4"/>
</g>
<g filter="url(#filter7_d_8_2)">
<path d="M105.631 179.151C106.32 178.285 107.697 179.013 107.368 180.07L58.4492 337.379C58.225 338.1 57.3138 338.322 56.7832 337.786L14.5783 295.101C14.2224 294.741 14.1916 294.172 14.5066 293.776L105.631 179.151Z" fill="#8B0000"/>
<path d="M105.787 179.275C106.338 178.582 107.44 179.165 107.177 180.011L58.2582 337.32C58.0789 337.897 57.3499 338.074 56.9254 337.645L14.7205 294.96C14.4358 294.672 14.4111 294.217 14.6631 293.9L105.787 179.275Z" stroke="white" stroke-width="0.4"/>
</g>
<g filter="url(#filter8_d_8_2)">
<path d="M79.7528 282.719C80.0156 281.877 81.1614 281.763 81.5848 282.537L150.172 407.953C150.346 408.272 150.334 408.661 150.139 408.968L141.625 422.411C141.282 422.954 140.523 423.036 140.071 422.581L61.3793 343.398C61.1179 343.135 61.0235 342.749 61.1339 342.395L79.7528 282.719Z" fill="#4A2B0F"/>
<path d="M79.9437 282.779C80.154 282.105 81.0706 282.014 81.4093 282.633L149.996 408.049C150.136 408.304 150.126 408.615 149.97 408.861L141.456 422.304C141.181 422.738 140.575 422.804 140.213 422.44L61.5211 343.257C61.3121 343.046 61.2365 342.738 61.3249 342.454L79.9437 282.779Z" stroke="white" stroke-width="0.4"/>
</g>
<g filter="url(#filter9_d_8_2)">
<path d="M153.665 412.964C153.844 412.658 154.172 412.47 154.527 412.47H205.559C205.917 412.47 206.248 412.662 206.426 412.973L214.077 426.311C214.3 426.701 214.236 427.191 213.921 427.511L180.667 461.248C180.275 461.645 179.634 461.645 179.242 461.248L145.993 427.516C145.675 427.194 145.613 426.699 145.842 426.309L153.665 412.964Z" fill="#8F9779"/>
<path d="M153.837 413.066C153.981 412.821 154.243 412.67 154.527 412.67H205.559C205.845 412.67 206.11 412.823 206.252 413.072L213.903 426.411C214.082 426.722 214.031 427.115 213.779 427.371L180.524 461.107C180.211 461.425 179.698 461.425 179.385 461.107L146.135 427.376C145.881 427.118 145.832 426.722 146.015 426.41L153.837 413.066Z" stroke="white" stroke-width="0.4"/>
</g>
<g filter="url(#filter10_d_8_2)">
<path d="M277.831 284.529C278.253 283.756 279.397 283.866 279.663 284.706L297.772 341.895C297.884 342.249 297.791 342.635 297.53 342.899L219.817 421.597C219.372 422.047 218.625 421.976 218.273 421.449L210.29 409.473C210.084 409.164 210.066 408.766 210.244 408.44L277.831 284.529Z" fill="#DAA520"/>
<path d="M278.007 284.625C278.344 284.006 279.259 284.095 279.472 284.767L297.582 341.955C297.671 342.238 297.597 342.548 297.388 342.759L219.675 421.456C219.319 421.817 218.721 421.759 218.44 421.338L210.456 409.362C210.291 409.115 210.277 408.796 210.419 408.535L278.007 284.625Z" stroke="white" stroke-width="0.4"/>
</g>
<g filter="url(#filter11_d_8_2)">
<path d="M252.067 179.605C251.735 178.548 253.114 177.816 253.804 178.683L344.905 293.28C345.219 293.674 345.19 294.241 344.838 294.601L303.123 337.275C302.594 337.816 301.68 337.597 301.454 336.875L252.067 179.605Z" fill="#4A2B0F"/>
<path d="M252.258 179.545C251.992 178.699 253.095 178.114 253.647 178.808L344.749 293.404C345 293.72 344.977 294.173 344.695 294.461L302.98 337.135C302.557 337.568 301.826 337.393 301.644 336.816L252.258 179.545Z" stroke="white" stroke-width="0.4"/>
</g>
<g filter="url(#filter12_d_8_2)">
<path d="M144.748 388.944C144.389 388.278 144.872 387.47 145.629 387.47H213.818C214.566 387.47 215.049 388.261 214.708 388.926L205.733 406.426C205.562 406.76 205.219 406.97 204.843 406.97H155.052C154.684 406.97 154.346 406.768 154.171 406.444L144.748 388.944Z" fill="#8B0000"/>
<path d="M144.924 388.849C144.637 388.316 145.023 387.67 145.629 387.67H213.818C214.416 387.67 214.803 388.303 214.53 388.835L205.555 406.335C205.418 406.602 205.144 406.77 204.843 406.77H155.052C154.757 406.77 154.487 406.609 154.347 406.349L144.924 388.849Z" stroke="white" stroke-width="0.4"/>
</g>
<g filter="url(#filter13_d_8_2)">
<path d="M230.023 328.666C230.513 328.3 231.215 328.456 231.503 328.995L238.207 341.509C238.362 341.798 238.365 342.144 238.216 342.436L216.418 385.064C216.163 385.562 215.55 385.754 215.056 385.49L180.842 367.211C180.196 366.866 180.128 365.967 180.714 365.528L230.023 328.666Z" fill="#C1660A"/>
<path d="M230.143 328.826C230.535 328.533 231.096 328.658 231.327 329.089L238.031 341.603C238.155 341.834 238.157 342.112 238.038 342.345L216.24 384.973C216.036 385.371 215.545 385.525 215.151 385.314L180.936 367.035C180.419 366.759 180.365 366.039 180.834 365.689L230.143 328.826Z" stroke="white" stroke-width="0.4"/>
</g>
<g filter="url(#filter14_d_8_2)">
<path d="M128.886 328.666C128.396 328.3 127.694 328.456 127.405 328.995L120.702 341.509C120.547 341.798 120.544 342.144 120.693 342.436L142.491 385.064C142.746 385.562 143.359 385.754 143.852 385.49L178.067 367.211C178.713 366.866 178.781 365.967 178.195 365.528L128.886 328.666Z" fill="#C1660A"/>
<path d="M128.766 328.826C128.374 328.533 127.813 328.658 127.582 329.089L120.878 341.603C120.754 341.834 120.751 342.112 120.871 342.345L142.669 384.973C142.873 385.371 143.364 385.525 143.758 385.314L177.973 367.035C178.49 366.759 178.544 366.039 178.075 365.689L128.766 328.826Z" stroke="white" stroke-width="0.4"/>
</g>
<g filter="url(#filter15_d_8_2)">
<path d="M179.016 175.879C179.207 175.938 179.412 175.939 179.604 175.88L239.011 157.758C239.534 157.598 240.088 157.889 240.255 158.41L259.652 219.025C259.819 219.548 259.534 220.109 259.012 220.28L206.118 237.674C205.613 237.84 205.326 238.372 205.465 238.885L227.967 322.203C228.14 322.84 227.657 323.467 226.997 323.463L132.609 322.977C131.953 322.973 131.478 322.349 131.649 321.716L154.063 238.881C154.201 238.37 153.917 237.839 153.414 237.672L101.24 220.28C100.723 220.108 100.44 219.554 100.602 219.034L119.512 158.424C119.676 157.897 120.237 157.603 120.764 157.767L179.016 175.879Z" fill="#F5F5DC"/>
<path d="M178.956 176.07C179.186 176.141 179.432 176.142 179.663 176.072L239.069 157.949C239.488 157.822 239.931 158.054 240.065 158.471L259.462 219.086C259.596 219.505 259.367 219.953 258.95 220.09L206.055 237.484C205.449 237.683 205.105 238.321 205.271 238.937L227.774 322.255C227.912 322.765 227.526 323.266 226.998 323.263L132.61 322.777C132.085 322.774 131.705 322.275 131.842 321.768L154.256 238.934C154.422 238.32 154.081 237.683 153.477 237.482L101.303 220.091C100.89 219.953 100.663 219.509 100.793 219.093L119.703 158.483C119.835 158.062 120.283 157.827 120.704 157.958L178.956 176.07Z" stroke="white" stroke-width="0.4"/>
</g>
<path d="M145.707 243.551L140.073 260.451L116.24 231.851L145.707 243.551Z" fill="#D50000" stroke="#FF0000" stroke-width="2"/>
<path d="M213.229 243.56L219.323 260.536L244.569 231.808L213.229 243.56Z" fill="#D50000" stroke="#FF0000" stroke-width="2"/>
<g filter="url(#filter16_d_8_2)">
<path d="M99.3845 222.301C99.6248 221.529 100.634 221.347 101.13 221.985L137.657 269.086C137.845 269.329 137.911 269.644 137.837 269.942L125.483 319.357C125.464 319.432 125.437 319.505 125.401 319.573L118.313 333.307C117.946 334.017 116.936 334.032 116.549 333.332L83.661 273.844C83.529 273.605 83.5003 273.323 83.5813 273.063L99.3845 222.301Z" fill="#C1660A"/>
<path d="M99.5755 222.36C99.7677 221.743 100.575 221.597 100.971 222.108L137.499 269.209C137.649 269.403 137.702 269.655 137.643 269.893L125.289 319.309C125.274 319.369 125.252 319.427 125.223 319.482L118.135 333.215C117.842 333.784 117.033 333.795 116.724 333.236L83.836 273.747C83.7305 273.556 83.7074 273.33 83.7723 273.122L99.5755 222.36Z" stroke="white" stroke-width="0.4"/>
</g>
<g filter="url(#filter17_d_8_2)">
<path d="M260.038 222.339C259.795 221.56 258.771 221.385 258.283 222.039L221.739 270.959C221.559 271.2 221.497 271.509 221.57 271.801L233.929 321.089C233.946 321.157 233.97 321.224 234.001 321.287L241.108 335.748C241.465 336.474 242.491 336.498 242.881 335.79L276.248 275.274C276.38 275.036 276.408 274.753 276.327 274.493L260.038 222.339Z" fill="#4A2B0F"/>
<path d="M259.847 222.399C259.653 221.776 258.834 221.636 258.443 222.159L221.899 271.079C221.755 271.271 221.706 271.519 221.764 271.752L234.123 321.04C234.136 321.095 234.156 321.148 234.181 321.199L241.287 335.66C241.573 336.24 242.394 336.26 242.706 335.693L276.073 275.178C276.179 274.987 276.201 274.761 276.136 274.553L259.847 222.399Z" stroke="white" stroke-width="0.4"/>
</g>
<defs>
<filter id="filter0_dddd_8_2" x="-18.0456" y="65.9701" width="395.5" height="430" filterUnits="userSpaceOnUse" color-interpolation-filters="sRGB">
<feFlood flood-opacity="0" result="BackgroundImageFix"/>
<feColorMatrix in="SourceAlpha" type="matrix" values="0 0 0 0 0 0 0 0 0 0 0 0 0 0 0 0 0 0 127 0" result="hardAlpha"/>
<feOffset dy="10"/>
<feGaussianBlur stdDeviation="5"/>
<feComposite in2="hardAlpha" operator="out"/>
<feColorMatrix type="matrix" values="0 0 0 0 0.803922 0 0 0 0 0.521569 0 0 0 0 0.247059 0 0 0 0.5 0"/>
<feBlend mode="normal" in2="BackgroundImageFix" result="effect1_dropShadow_8_2"/>
<feColorMatrix in="SourceAlpha" type="matrix" values="0 0 0 0 0 0 0 0 0 0 0 0 0 0 0 0 0 0 127 0" result="hardAlpha"/>
<feOffset dx="-10"/>
<feGaussianBlur stdDeviation="5"/>
<feComposite in2="hardAlpha" operator="out"/>
<feColorMatrix type="matrix" values="0 0 0 0 0.803922 0 0 0 0 0.521569 0 0 0 0 0.247059 0 0 0 0.5 0"/>
<feBlend mode="normal" in2="effect1_dropShadow_8_2" result="effect2_dropShadow_8_2"/>
<feColorMatrix in="SourceAlpha" type="matrix" values="0 0 0 0 0 0 0 0 0 0 0 0 0 0 0 0 0 0 127 0" result="hardAlpha"/>
<feOffset dx="10"/>
<feGaussianBlur stdDeviation="5"/>
<feComposite in2="hardAlpha" operator="out"/>
<feColorMatrix type="matrix" values="0 0 0 0 0.803922 0 0 0 0 0.521569 0 0 0 0 0.247059 0 0 0 0.5 0"/>
<feBlend mode="normal" in2="effect2_dropShadow_8_2" result="effect3_dropShadow_8_2"/>
<feColorMatrix in="SourceAlpha" type="matrix" values="0 0 0 0 0 0 0 0 0 0 0 0 0 0 0 0 0 0 127 0" result="hardAlpha"/>
<feOffset dy="-10"/>
<feGaussianBlur stdDeviation="5"/>
<feComposite in2="hardAlpha" operator="out"/>
<feColorMatrix type="matrix" values="0 0 0 0 0.803922 0 0 0 0 0.521569 0 0 0 0 0.247059 0 0 0 0.5 0"/>
<feBlend mode="normal" in2="effect3_dropShadow_8_2" result="effect4_dropShadow_8_2"/>
<feBlend mode="normal" in="SourceGraphic" in2="effect4_dropShadow_8_2" result="shape"/>
</filter>
<filter id="filter1_d_8_2" x="23.4745" y="45.9702" width="199.98" height="172.161" filterUnits="userSpaceOnUse" color-interpolation-filters="sRGB">
<feFlood flood-opacity="0" result="BackgroundImageFix"/>
<feColorMatrix in="SourceAlpha" type="matrix" values="0 0 0 0 0 0 0 0 0 0 0 0 0 0 0 0 0 0 127 0" result="hardAlpha"/>
<feOffset dx="-4"/>
<feGaussianBlur stdDeviation="25"/>
<feComposite in2="hardAlpha" operator="out"/>
<feColorMatrix type="matrix" values="0 0 0 0 0.976471 0 0 0 0 0.760784 0 0 0 0 0.541176 0 0 0 1 0"/>
<feBlend mode="normal" in2="BackgroundImageFix" result="effect1_dropShadow_8_2"/>
<feBlend mode="normal" in="SourceGraphic" in2="effect1_dropShadow_8_2" result="shape"/>
</filter>
<filter id="filter2_d_8_2" x="136.454" y="45.9702" width="198.64" height="172.161" filterUnits="userSpaceOnUse" color-interpolation-filters="sRGB">
<feFlood flood-opacity="0" result="BackgroundImageFix"/>
<feColorMatrix in="SourceAlpha" type="matrix" values="0 0 0 0 0 0 0 0 0 0 0 0 0 0 0 0 0 0 127 0" result="hardAlpha"/>
<feOffset dx="4"/>
<feGaussianBlur stdDeviation="25"/>
<feComposite in2="hardAlpha" operator="out"/>
<feColorMatrix type="matrix" values="0 0 0 0 1 0 0 0 0 0.419608 0 0 0 0 0.419608 0 0 0 1 0"/>
<feBlend mode="normal" in2="BackgroundImageFix" result="effect1_dropShadow_8_2"/>
<feBlend mode="normal" in="SourceGraphic" in2="effect1_dropShadow_8_2" result="shape"/>
</filter>
<filter id="filter3_d_8_2" x="242.898" y="97.3599" width="110.527" height="129.255" filterUnits="userSpaceOnUse" color-interpolation-filters="sRGB">
<feFlood flood-opacity="0" result="BackgroundImageFix"/>
<feColorMatrix in="SourceAlpha" type="matrix" values="0 0 0 0 0 0 0 0 0 0 0 0 0 0 0 0 0 0 127 0" result="hardAlpha"/>
<feOffset dx="3" dy="2"/>
<feGaussianBlur stdDeviation="3"/>
<feComposite in2="hardAlpha" operator="out"/>
<feColorMatrix type="matrix" values="0 0 0 0 0.921569 0 0 0 0 0.807843 0 0 0 0 0.698039 0 0 0 1 0"/>
<feBlend mode="normal" in2="BackgroundImageFix" result="effect1_dropShadow_8_2"/>
<feBlend mode="normal" in="SourceGraphic" in2="effect1_dropShadow_8_2" result="shape"/>
</filter>
<filter id="filter4_d_8_2" x="244.843" y="156.463" width="112.111" height="136.167" filterUnits="userSpaceOnUse" color-interpolation-filters="sRGB">
<feFlood flood-opacity="0" result="BackgroundImageFix"/>
<feColorMatrix in="SourceAlpha" type="matrix" values="0 0 0 0 0 0 0 0 0 0 0 0 0 0 0 0 0 0 127 0" result="hardAlpha"/>
<feOffset dx="3"/>
<feGaussianBlur stdDeviation="3"/>
<feComposite in2="hardAlpha" operator="out"/>
<feColorMatrix type="matrix" values="0 0 0 0 0.6 0 0 0 0 0.631373 0 0 0 0 0.52549 0 0 0 1 0"/>
<feBlend mode="normal" in2="BackgroundImageFix" result="effect1_dropShadow_8_2"/>
<feBlend mode="normal" in="SourceGraphic" in2="effect1_dropShadow_8_2" result="shape"/>
</filter>
<filter id="filter5_d_8_2" x="4.98822" y="96.8482" width="112.517" height="131.258" filterUnits="userSpaceOnUse" color-interpolation-filters="sRGB">
<feFlood flood-opacity="0" result="BackgroundImageFix"/>
<feColorMatrix in="SourceAlpha" type="matrix" values="0 0 0 0 0 0 0 0 0 0 0 0 0 0 0 0 0 0 127 0" result="hardAlpha"/>
<feOffset dx="-3" dy="2"/>
<feGaussianBlur stdDeviation="3"/>
<feComposite in2="hardAlpha" operator="out"/>
<feColorMatrix type="matrix" values="0 0 0 0 0.94902 0 0 0 0 0.862745 0 0 0 0 0.643137 0 0 0 1 0"/>
<feBlend mode="normal" in2="BackgroundImageFix" result="effect1_dropShadow_8_2"/>
<feBlend mode="normal" in="SourceGraphic" in2="effect1_dropShadow_8_2" result="shape"/>
</filter>
<filter id="filter6_d_8_2" x="2.45447" y="156.375" width="112.678" height="136.757" filterUnits="userSpaceOnUse" color-interpolation-filters="sRGB">
<feFlood flood-opacity="0" result="BackgroundImageFix"/>
<feColorMatrix in="SourceAlpha" type="matrix" values="0 0 0 0 0 0 0 0 0 0 0 0 0 0 0 0 0 0 127 0" result="hardAlpha"/>
<feOffset dx="-3"/>
<feGaussianBlur stdDeviation="3"/>
<feComposite in2="hardAlpha" operator="out"/>
<feColorMatrix type="matrix" values="0 0 0 0 0.6 0 0 0 0 0.631373 0 0 0 0 0.52549 0 0 0 1 0"/>
<feBlend mode="normal" in2="BackgroundImageFix" result="effect1_dropShadow_8_2"/>
<feBlend mode="normal" in="SourceGraphic" in2="effect1_dropShadow_8_2" result="shape"/>
</filter>
<filter id="filter7_d_8_2" x="11.2894" y="165.767" width="105.129" height="172.316" filterUnits="userSpaceOnUse" color-interpolation-filters="sRGB">
<feFlood flood-opacity="0" result="BackgroundImageFix"/>
<feColorMatrix in="SourceAlpha" type="matrix" values="0 0 0 0 0 0 0 0 0 0 0 0 0 0 0 0 0 0 127 0" result="hardAlpha"/>
<feOffset dx="3" dy="-7"/>
<feGaussianBlur stdDeviation="3"/>
<feComposite in2="hardAlpha" operator="out"/>
<feColorMatrix type="matrix" values="0 0 0 0 1 0 0 0 0 0.419608 0 0 0 0 0.419608 0 0 0 1 0"/>
<feBlend mode="normal" in2="BackgroundImageFix" result="effect1_dropShadow_8_2"/>
<feBlend mode="normal" in="SourceGraphic" in2="effect1_dropShadow_8_2" result="shape"/>
</filter>
<filter id="filter8_d_8_2" x="54.0885" y="279.017" width="103.206" height="154.86" filterUnits="userSpaceOnUse" color-interpolation-filters="sRGB">
<feFlood flood-opacity="0" result="BackgroundImageFix"/>
<feColorMatrix in="SourceAlpha" type="matrix" values="0 0 0 0 0 0 0 0 0 0 0 0 0 0 0 0 0 0 127 0" result="hardAlpha"/>
<feOffset dy="4"/>
<feGaussianBlur stdDeviation="3.5"/>
<feComposite in2="hardAlpha" operator="out"/>
<feColorMatrix type="matrix" values="0 0 0 0 0.890196 0 0 0 0 0.658824 0 0 0 0 0.45098 0 0 0 1 0"/>
<feBlend mode="normal" in2="BackgroundImageFix" result="effect1_dropShadow_8_2"/>
<feBlend mode="normal" in="SourceGraphic" in2="effect1_dropShadow_8_2" result="shape"/>
</filter>
<filter id="filter9_d_8_2" x="137.705" y="408.47" width="84.5043" height="65.0755" filterUnits="userSpaceOnUse" color-interpolation-filters="sRGB">
<feFlood flood-opacity="0" result="BackgroundImageFix"/>
<feColorMatrix in="SourceAlpha" type="matrix" values="0 0 0 0 0 0 0 0 0 0 0 0 0 0 0 0 0 0 127 0" result="hardAlpha"/>
<feOffset dy="4"/>
<feGaussianBlur stdDeviation="4"/>
<feComposite in2="hardAlpha" operator="out"/>
<feColorMatrix type="matrix" values="0 0 0 0 0.6 0 0 0 0 0.631373 0 0 0 0 0.52549 0 0 0 1 0"/>
<feBlend mode="normal" in2="BackgroundImageFix" result="effect1_dropShadow_8_2"/>
<feBlend mode="normal" in="SourceGraphic" in2="effect1_dropShadow_8_2" result="shape"/>
</filter>
<filter id="filter10_d_8_2" x="203.122" y="281.008" width="101.697" height="151.886" filterUnits="userSpaceOnUse" color-interpolation-filters="sRGB">
<feFlood flood-opacity="0" result="BackgroundImageFix"/>
<feColorMatrix in="SourceAlpha" type="matrix" values="0 0 0 0 0 0 0 0 0 0 0 0 0 0 0 0 0 0 127 0" result="hardAlpha"/>
<feOffset dy="4"/>
<feGaussianBlur stdDeviation="3.5"/>
<feComposite in2="hardAlpha" operator="out"/>
<feColorMatrix type="matrix" values="0 0 0 0 0.976471 0 0 0 0 0.760784 0 0 0 0 0.541176 0 0 0 1 0"/>
<feBlend mode="normal" in2="BackgroundImageFix" result="effect1_dropShadow_8_2"/>
<feBlend mode="normal" in="SourceGraphic" in2="effect1_dropShadow_8_2" result="shape"/>
</filter>
<filter id="filter11_d_8_2" x="243.016" y="165.3" width="105.107" height="172.277" filterUnits="userSpaceOnUse" color-interpolation-filters="sRGB">
<feFlood flood-opacity="0" result="BackgroundImageFix"/>
<feColorMatrix in="SourceAlpha" type="matrix" values="0 0 0 0 0 0 0 0 0 0 0 0 0 0 0 0 0 0 127 0" result="hardAlpha"/>
<feOffset dx="-3" dy="-7"/>
<feGaussianBlur stdDeviation="3"/>
<feComposite in2="hardAlpha" operator="out"/>
<feColorMatrix type="matrix" values="0 0 0 0 0.890196 0 0 0 0 0.658824 0 0 0 0 0.45098 0 0 0 1 0"/>
<feBlend mode="normal" in2="BackgroundImageFix" result="effect1_dropShadow_8_2"/>
<feBlend mode="normal" in="SourceGraphic" in2="effect1_dropShadow_8_2" result="shape"/>
</filter>
<filter id="filter12_d_8_2" x="140.627" y="387.47" width="78.1919" height="27.5" filterUnits="userSpaceOnUse" color-interpolation-filters="sRGB">
<feFlood flood-opacity="0" result="BackgroundImageFix"/>
<feColorMatrix in="SourceAlpha" type="matrix" values="0 0 0 0 0 0 0 0 0 0 0 0 0 0 0 0 0 0 127 0" result="hardAlpha"/>
<feOffset dy="4"/>
<feGaussianBlur stdDeviation="2"/>
<feComposite in2="hardAlpha" operator="out"/>
<feColorMatrix type="matrix" values="0 0 0 0 1 0 0 0 0 0.419608 0 0 0 0 0.419608 0 0 0 1 0"/>
<feBlend mode="normal" in2="BackgroundImageFix" result="effect1_dropShadow_8_2"/>
<feBlend mode="normal" in="SourceGraphic" in2="effect1_dropShadow_8_2" result="shape"/>
</filter>
<filter id="filter13_d_8_2" x="175.313" y="324.467" width="70.0128" height="69.1416" filterUnits="userSpaceOnUse" color-interpolation-filters="sRGB">
<feFlood flood-opacity="0" result="BackgroundImageFix"/>
<feColorMatrix in="SourceAlpha" type="matrix" values="0 0 0 0 0 0 0 0 0 0 0 0 0 0 0 0 0 0 127 0" result="hardAlpha"/>
<feOffset dx="1" dy="2"/>
<feGaussianBlur stdDeviation="3"/>
<feComposite in2="hardAlpha" operator="out"/>
<feColorMatrix type="matrix" values="0 0 0 0 0.976471 0 0 0 0 0.760784 0 0 0 0 0.541176 0 0 0 1 0"/>
<feBlend mode="normal" in2="BackgroundImageFix" result="effect1_dropShadow_8_2"/>
<feBlend mode="normal" in="SourceGraphic" in2="effect1_dropShadow_8_2" result="shape"/>
</filter>
<filter id="filter14_d_8_2" x="113.583" y="324.467" width="70.0128" height="69.1416" filterUnits="userSpaceOnUse" color-interpolation-filters="sRGB">
<feFlood flood-opacity="0" result="BackgroundImageFix"/>
<feColorMatrix in="SourceAlpha" type="matrix" values="0 0 0 0 0 0 0 0 0 0 0 0 0 0 0 0 0 0 127 0" result="hardAlpha"/>
<feOffset dx="-1" dy="2"/>
<feGaussianBlur stdDeviation="3"/>
<feComposite in2="hardAlpha" operator="out"/>
<feColorMatrix type="matrix" values="0 0 0 0 0.976471 0 0 0 0 0.760784 0 0 0 0 0.541176 0 0 0 1 0"/>
<feBlend mode="normal" in2="BackgroundImageFix" result="effect1_dropShadow_8_2"/>
<feBlend mode="normal" in="SourceGraphic" in2="effect1_dropShadow_8_2" result="shape"/>
</filter>
<filter id="filter15_d_8_2" x="88.5562" y="141.714" width="183.144" height="189.749" filterUnits="userSpaceOnUse" color-interpolation-filters="sRGB">
<feFlood flood-opacity="0" result="BackgroundImageFix"/>
<feColorMatrix in="SourceAlpha" type="matrix" values="0 0 0 0 0 0 0 0 0 0 0 0 0 0 0 0 0 0 127 0" result="hardAlpha"/>
<feOffset dy="-4"/>
<feGaussianBlur stdDeviation="6"/>
<feComposite in2="hardAlpha" operator="out"/>
<feColorMatrix type="matrix" values="0 0 0 0 0.984314 0 0 0 0 0.984314 0 0 0 0 0.945098 0 0 0 1 0"/>
<feBlend mode="normal" in2="BackgroundImageFix" result="effect1_dropShadow_8_2"/>
<feBlend mode="normal" in="SourceGraphic" in2="effect1_dropShadow_8_2" result="shape"/>
</filter>
<filter id="filter16_d_8_2" x="69.5361" y="207.598" width="84.3304" height="142.251" filterUnits="userSpaceOnUse" color-interpolation-filters="sRGB">
<feFlood flood-opacity="0" result="BackgroundImageFix"/>
<feColorMatrix in="SourceAlpha" type="matrix" values="0 0 0 0 0 0 0 0 0 0 0 0 0 0 0 0 0 0 127 0" result="hardAlpha"/>
<feOffset dx="1" dy="1"/>
<feGaussianBlur stdDeviation="7.5"/>
<feComposite in2="hardAlpha" operator="out"/>
<feColorMatrix type="matrix" values="0 0 0 0 0.976471 0 0 0 0 0.760784 0 0 0 0 0.541176 0 0 0 1 0"/>
<feBlend mode="normal" in2="BackgroundImageFix" result="effect1_dropShadow_8_2"/>
<feBlend mode="normal" in="SourceGraphic" in2="effect1_dropShadow_8_2" result="shape"/>
</filter>
<filter id="filter17_d_8_2" x="205.54" y="207.637" width="84.8327" height="144.67" filterUnits="userSpaceOnUse" color-interpolation-filters="sRGB">
<feFlood flood-opacity="0" result="BackgroundImageFix"/>
<feColorMatrix in="SourceAlpha" type="matrix" values="0 0 0 0 0 0 0 0 0 0 0 0 0 0 0 0 0 0 127 0" result="hardAlpha"/>
<feOffset dx="-1" dy="1"/>
<feGaussianBlur stdDeviation="7.5"/>
<feComposite in2="hardAlpha" operator="out"/>
<feColorMatrix type="matrix" values="0 0 0 0 0.890196 0 0 0 0 0.658824 0 0 0 0 0.45098 0 0 0 1 0"/>
<feBlend mode="normal" in2="BackgroundImageFix" result="effect1_dropShadow_8_2"/>
<feBlend mode="normal" in="SourceGraphic" in2="effect1_dropShadow_8_2" result="shape"/>
</filter>
</defs>
</svg>
